<svg xmlns="http://www.w3.org/2000/svg" xmlns:xlink="http://www.w3.org/1999/xlink" width="395.785" height="267.319" viewBox="0 0 395.785 267.319">
  <defs>
    <linearGradient id="linear-gradient" x1="-0.336" y1="-0.246" x2="0.826" y2="0.61" gradientUnits="objectBoundingBox">
      <stop offset="0" stop-color="#fd0"/>
      <stop offset="1" stop-color="#f6881f"/>
    </linearGradient>
    <radialGradient id="radial-gradient" cx="0.502" cy="0.043" r="1.284" gradientTransform="translate(0.257) scale(0.486 1)" gradientUnits="objectBoundingBox">
      <stop offset="0" stop-color="#00acee"/>
      <stop offset="1" stop-color="#273b97"/>
    </radialGradient>
    <linearGradient id="linear-gradient-2" x1="0.075" y1="0.374" x2="0.987" y2="1.004" xlink:href="#linear-gradient"/>
  </defs>
  <g id="Lotto_logo_polska" transform="translate(0 0)">
    <path id="Path_1" data-name="Path 1" d="M202.232,66.77a290.213,290.213,0,0,1,86.582-7.937c31.909,2.044,68.209,9.7,90.543,34.539,26.313,28.6,19.527,67.77-9.759,92.021,2.264-.393,11.731-2.229,16.118-2.247.879-.007,2.065.3-.193,3.865-8.319,13.126-18.9,23.106-30.523,32.978.82,13.5.559,30.125-2.013,44.366-.415,2.3-2.05,1.991-3.063,1.2a170.856,170.856,0,0,1-24.883-24.29,319.8,319.8,0,0,1-56.062,23.855c-5.735,1.784-3.66-1.049-1.881-3.624,10.038-14.463,18.958-28.848,27.938-43.993a106.707,106.707,0,0,1-10.507-6.886c-26.123,20.115-56.827,34.371-88.278,43.866-43.538,13.144-86.075,15.865-119.645,9.644C40.047,257.355,13.3,239.815,5.037,213.121-5.6,178.776,18.3,145.849,42.9,124.428c3.38-10.44,12.368-30.8,17.449-41.356-17.884-11.48-42.6-25.54-54.322-33.384-9.75-6.574-7.433-7.49,5.242-9.21a412.982,412.982,0,0,1,71.765-.809C90.1,27.364,98.132,14.918,106.1,3.15c2.175-3.1,3.111-5.127,5.882-.108,8.483,14.371,17.23,28.821,24.351,43.937,22.78,4.63,44.158,11.891,65.9,19.791" fill="#fff"/>
    <path id="Path_2" data-name="Path 2" d="M327.761,175.967c-3.054,7.705-5.806,15.9-8.583,23.345-8.683.513-17.309.705-24.8.854-.541.013-.825.45-.158.914,5.927,3.779,11.428,6.744,18.755,11.972-4.48,9.045-9.823,17.124-15.04,25.733-.731,1.124-.88,1.943.95,1.1a206.165,206.165,0,0,0,27.989-15.886,113.488,113.488,0,0,1,13.938,14.866c.09.111.3.189.323-.043a109.07,109.07,0,0,0-.353-24.837,163.109,163.109,0,0,0,19.77-17.795c.495-.527,0-.673-.328-.629-7.156.87-15.691,1.906-22.7,2.444a188.722,188.722,0,0,0-7.911-22.1c-.345-.729-.624-1.1-.9-1.1s-.579.384-.943,1.157M271.686,71.894a275.514,275.514,0,0,0-34.648,2.2c-27.181,3.635-54.3,10.785-78.711,22.069-1.419.693-.786,1.631.368,1.422,117.392-20.53,219.152.355,183.642,88.489-.455.817.291.8.592.619,56.41-28.736,51.128-86.937-10.7-106.5-18.862-5.969-40.166-8.3-60.534-8.3h-.013" fill="url(#linear-gradient)"/>
    <path id="Path_3" data-name="Path 3" d="M164.283,169.271c-.962-5.312-4.418-23.642,2.926-24.334,7.836-.732,10.388,18.791,11.177,23.543.721,4.346,3.8,23.684-2.809,24.8a3.906,3.906,0,0,1-.631.054c-6.883,0-9.81-19.351-10.663-24.065M165.49,128.5c-.247,0-.5,0-.749.008-23.764.94-26.2,26.584-23.124,44.455,3.091,18.313,14.351,42.711,37.264,38.213,20.153-3.957,23.033-26.381,20.468-43.379-2.869-19.066-12.461-39.295-33.854-39.3h-.005M104.736,213.41a377.383,377.383,0,0,0,43.268.428q-1.766-10.332-3.589-20.655c-5.954.273-11.911.362-17.87.318-3.916-21.311-7.553-42.672-11.37-64q-12.99-.7-25.953-1.747c4.972,28.588,10.3,57.113,15.514,85.656m88.251-85.819q1.6,9.453,3.125,18.918c3.14-.45,6.278-.913,9.415-1.371q4.5,27.849,9.32,55.646c6.021-1.83,12.043-3.662,18.037-5.58q-4.47-26.61-8.873-53.229c2.863-.549,5.723-1.112,8.574-1.731l-2.9-17.438q-18.3,2.789-36.7,4.785M232,122.53l2.9,17.387q4.131-.888,8.257-1.813c2.812,16.9,5.565,33.8,8.5,50.669,5.4-2.094,10.772-4.27,16.091-6.569-2.784-16.1-5.381-32.231-8.132-48.338,2.54-.739,5.069-1.521,7.6-2.3q-1.344-8.018-2.68-16.039-16.161,3.986-32.537,7m53.667,17.084c-.944-4.616-3.169-17.517,1.478-19.063,4.475-1.489,6.763,12.864,7.424,16.326.756,3.974,3.382,16.97-1.38,18.906a1.993,1.993,0,0,1-.752.153c-4.122,0-6.277-14.179-6.77-16.322m4.223-32.238a17.57,17.57,0,0,0-7.824,2.023c-14.051,6.979-13.3,25.035-11.163,37.805,2.065,12.43,9,30.406,24.67,22.123,13.921-7.358,15.189-23.111,12.816-38.4-1.628-11.73-8.071-23.547-18.5-23.548h0" fill="url(#radial-gradient)"/>
    <path id="Path_4" data-name="Path 4" d="M52.873,133.772c-28.128,24.076-42.207,51.589-34.849,75.358,13.281,42.9,91.353,57.371,174.341,32.318,48.622-14.681,88.161-39.676,109.9-66.486.407-.5.105-1.1-.584-.537-20.225,16.932-46.965,31.719-77.938,41.819C143.512,242.409,65.228,227.23,48.929,182.35c-5.449-15-3.279-31.431,5.02-47.63.362-.694.193-1.3-.3-1.3a1.326,1.326,0,0,0-.773.35M107.9,25.436c-5.865,9.156-12,18.46-17.156,28.489A444.639,444.639,0,0,0,35.2,52.351c-.471.016-.562.455-.145.645A365.9,365.9,0,0,1,77.764,78.319c-6.135,12.578-14.377,28.722-19.2,45.711-.127.408.164.617.514.384a365.7,365.7,0,0,1,46.169-25.892,287.24,287.24,0,0,1,34.444,33.7c.333.369.581.162.6-.2a158.94,158.94,0,0,0-4.54-46.557c12.708-4.935,25.668-9.395,38.807-13.512.426-.134.386-.507.006-.649a361.266,361.266,0,0,0-47.75-12.347,210.2,210.2,0,0,0-18.267-33.584.354.354,0,0,0-.285-.174.457.457,0,0,0-.361.244" fill="url(#linear-gradient-2)"/>
  </g>
</svg>
